<svg xmlns="http://www.w3.org/2000/svg" xmlns:xlink="http://www.w3.org/1999/xlink" fill="none" version="1.1" width="581" height="91" viewBox="0 0 581 91"><defs><clipPath id="master_svg0_3_115"><rect x="0" y="0" width="581" height="91" rx="0"/></clipPath></defs><g clip-path="url(#master_svg0_3_115)"><g><g><g><g><g transform="matrix(-1,0,0,1,7.9316792488098145,0)"><rect x="3.9658396244049072" y="62.09267497062683" width="3.9658396244049072" height="21.24793243408203" rx="0" fill="#2780FF" fill-opacity="1"/></g><g transform="matrix(-1,0,0,1,23.487357139587402,0)"><rect x="11.743678569793701" y="63.5011830329895" width="3.326390027999878" height="18.43091583251953" rx="0" fill="#1C7BFF" fill-opacity="1"/></g><g transform="matrix(-1,0,0,1,35.74804210662842,0)"><rect x="17.87402105331421" y="66.25843453407288" width="2.2039334774017334" height="12.916413307189941" rx="0" fill="#1A79FF" fill-opacity="1"/></g><g transform="matrix(-1,0,0,1,1159.9582509994507,0)"><path d="M579.9791254997253,62.09267497062683L584.2754554997254,62.09267497062683L584.2754554997254,83.34057497062683L579.9791254997253,83.34057497062683L579.9791254997253,70.55755497062682L579.9791254997253,68.93380497062682L579.9791254997253,67.55441497062684L579.9791254997253,65.73846497062684L579.9791254997253,62.09267497062683Z" fill="#2780FF" fill-opacity="1"/></g><g transform="matrix(-1,0,0,1,1142.2896718978882,0)"><rect x="571.1448359489441" y="63.5011830329895" width="3.6035892963409424" height="18.43091583251953" rx="0" fill="#1C7BFF" fill-opacity="1"/></g><g transform="matrix(-1,0,0,1,1126.0064687728882,0)"><rect x="563.0032343864441" y="66.25843453407288" width="2.387594699859619" height="12.916413307189941" rx="0" fill="#1A79FF" fill-opacity="1"/></g><g><rect x="21.73092794418335" y="71.58896040916443" width="72.03817749023438" height="1.127681016921997" rx="0" fill="#2A83FF" fill-opacity="1"/></g><g transform="matrix(-1,0,0,1,1115.8845205307007,0)"><rect x="557.9422602653503" y="71.58896040916443" width="72.03817749023438" height="1.127681016921997" rx="0" fill="#2A83FF" fill-opacity="1"/></g></g><g><path d="M180.96514577560424,68.1511C182.87224577560426,68.1511,184.48834577560424,68.87186,185.81344577560424,70.31338C187.13854577560426,71.75489999999999,187.80114577560425,73.5949,187.80114577560425,75.8333C187.80114577560425,78.0716,187.13854577560426,79.9071,185.81344577560424,81.3397C184.48834577560424,82.7723,182.88564577560425,83.4885,181.00544577560424,83.4885C179.12514577560427,83.4885,177.64784577560425,82.70060000000001,176.57334577560425,81.1248L176.57334577560425,90.4455L171.98024577560426,90.4455L171.98024577560426,68.31226L176.57334577560425,68.31226L176.57334577560425,70.27309L176.72984577560425,70.0662C177.74164577560424,68.78946,179.15334577560424,68.1511,180.96514577560424,68.1511ZM337.4468457756043,68.1511C339.6488457756043,68.1511,341.4758457756043,68.83157,342.9258457756042,70.19251C344.37684577560424,71.55345,345.10184577560426,73.4426,345.10184577560426,75.8601C345.10184577560426,76.3794,345.06584577560426,76.8629,344.9948457756043,77.3106L334.67984577560424,77.3106L334.71684577560427,77.527C334.83784577560425,78.092,335.12084577560427,78.5616,335.56584577560426,78.9357C336.06784577560427,79.3565,336.60984577560424,79.5669,337.19084577560426,79.5669C337.77284577560425,79.5669,338.20784577560426,79.5087,338.49384577560426,79.3923C338.78084577560423,79.27590000000001,338.99084577560427,79.15950000000001,339.1248457756043,79.0431C339.2598457756043,78.9267,339.43384577560425,78.7342,339.6488457756043,78.4656L344.6178457756042,78.4656L344.5268457756042,78.76259999999999C344.0718457756043,80.1303,343.2428457756042,81.2445,342.03984577560425,82.1052C340.75084577560426,83.0274,339.2188457756042,83.4885,337.4468457756043,83.4885C335.26184577560423,83.4885,333.4708457756043,82.78569999999999,332.0748457756042,81.38C330.6778457756043,79.9743,329.9788457756042,78.1075,329.9788457756042,75.7795C329.9788457756042,73.4516,330.6728457756043,71.59822,332.0608457756042,70.21937C333.44884577560424,68.84052,335.24384577560426,68.1511,337.4468457756043,68.1511ZM419.51884577560423,68.1511C421.42684577560425,68.1511,422.8898457756043,68.85843,423.91084577560423,70.27309L423.91084577560423,68.31226L428.50384577560425,68.31226L428.50384577560425,83.3005L423.91084577560423,83.3005L423.91084577560423,81.1248L423.74984577560423,81.3446C422.6588457756042,82.7739,421.2258457756042,83.4885,419.4518457756042,83.4885C417.58984577560426,83.4885,415.99584577560427,82.7723,414.6708457756042,81.3397C413.34584577560423,79.9071,412.6828457756042,78.0716,412.6828457756042,75.8333C412.6828457756042,73.5949,413.34584577560423,71.75489999999999,414.6708457756042,70.31338C415.99584577560427,68.87186,417.61184577560425,68.1511,419.51884577560423,68.1511ZM119.73619577560424,64.17571C121.76865577560424,64.17571,123.41164577560424,64.63682,124.66514577560424,65.55904C125.91864577560425,66.48126,126.57224577560424,67.93621,126.62594577560425,69.9239L121.62987577560425,69.9239L121.60052577560425,69.70288C121.50767577560424,69.12897,121.29809577560425,68.67886,120.97178577560425,68.35255C120.60468577560425,67.98546,120.13462577560425,67.80191,119.56159577560425,67.80191C118.98856577560424,67.80191,118.51850577560425,67.95412,118.15141577560425,68.25854C117.78431577560424,68.56296,117.60076577560424,69.00168,117.60076577560424,69.57471C117.60076577560424,70.14774,117.77088577560424,70.60885,118.11112577560425,70.95804C118.45136577560424,71.30723,118.89456577560425,71.57583,119.44072577560425,71.76386C119.98689577560425,71.95188,120.59574577560424,72.131,121.26725577560424,72.3011C121.93877577560424,72.4712,122.60581577560424,72.6771,123.26834577560425,72.91890000000001C123.93094577560424,73.1606,124.53534577560424,73.4606,125.08144577560425,73.8187C125.62764577560425,74.1768,126.07084577560425,74.6827,126.41104577560425,75.3363C126.75134577560425,75.9899,126.92144577560424,76.7734,126.92144577560424,77.6866C126.92144577560424,79.2804,126.27224577560425,80.64580000000001,124.97404577560425,81.7829C123.67574577560424,82.92,121.96562577560425,83.4885,119.84363577560424,83.4885C117.72164577560424,83.4885,116.01151577560425,82.9782,114.71324577560425,81.9575C113.41498477560425,80.9368,112.76584577560425,79.4863,112.76584577560425,77.6061L117.65449577560425,77.6061L117.67449577560424,77.798C117.84802577560424,79.1742,118.61135577560425,79.86240000000001,119.96451577560424,79.86240000000001C120.62707577560425,79.86240000000001,121.14638577560424,79.6878,121.52242577560425,79.3386C121.89848577560424,78.9894,122.08650577560425,78.5462,122.08650577560425,78.009C122.08650577560425,77.4718,121.91638577560425,77.033,121.57615577560425,76.6928C121.23591577560424,76.3526,120.79271577560425,76.084,120.24655577560425,75.887C119.70037577560424,75.69,119.09153577560424,75.5064,118.42001577560424,75.3363C117.74850577560424,75.1662,117.08146577560424,74.9558,116.41889577560424,74.7051C115.75633577560424,74.45439999999999,115.15196577560425,74.1545,114.60580577560425,73.8053C114.05963577560425,73.45609999999999,113.61643977560425,72.9547,113.27619877560424,72.3011C112.93596577560425,71.64746,112.76584577560425,70.87298,112.76584577560425,69.97762C112.76584577560425,68.22272,113.41945577560425,66.81702,114.72667577560425,65.7605C116.03389577560425,64.70398,117.70373577560424,64.17571,119.73619577560424,64.17571ZM401.74184577560425,64.17571C403.77484577560426,64.17571,405.41784577560423,64.63682,406.6708457756042,65.55904C407.92484577560424,66.48126,408.57784577560426,67.93621,408.63184577560423,69.9239L403.63584577560425,69.9239L403.60684577560426,69.70288C403.51384577560424,69.12897,403.30384577560426,68.67886,402.97784577560424,68.35255C402.6108457756043,67.98546,402.14084577560425,67.80191,401.56784577560427,67.80191C400.99484577560423,67.80191,400.52384577560423,67.95412,400.15684577560427,68.25854C399.78984577560425,68.56296,399.60684577560426,69.00168,399.60684577560426,69.57471C399.60684577560426,70.14774,399.7768457756043,70.60885,400.11684577560425,70.95804C400.4568457756042,71.30723,400.90084577560424,71.57583,401.44684577560423,71.76386C401.9928457756042,71.95188,402.60184577560426,72.131,403.27284577560425,72.3011C403.9448457756042,72.4712,404.61184577560425,72.6771,405.27384577560423,72.91890000000001C405.93684577560424,73.1606,406.5408457756042,73.4606,407.0868457756043,73.8187C407.63384577560424,74.1768,408.0768457756042,74.6827,408.41684577560426,75.3363C408.75684577560423,75.9899,408.92684577560425,76.7734,408.92684577560425,77.6866C408.92684577560425,79.2804,408.27784577560425,80.64580000000001,406.97984577560425,81.7829C405.68184577560424,82.92,403.97184577560427,83.4885,401.84984577560425,83.4885C399.72784577560424,83.4885,398.0168457756042,82.9782,396.7188457756042,81.9575C395.4208457756042,80.9368,394.7718457756042,79.4863,394.7718457756042,77.6061L399.65984577560425,77.6061L399.67984577560424,77.798C399.85384577560427,79.1742,400.61684577560425,79.86240000000001,401.96984577560426,79.86240000000001C402.63284577560427,79.86240000000001,403.1518457756043,79.6878,403.52784577560425,79.3386C403.9038457756042,78.9894,404.09184577560427,78.5462,404.09184577560427,78.009C404.09184577560427,77.4718,403.92184577560425,77.033,403.5818457756042,76.6928C403.24184577560425,76.3526,402.79884577560426,76.084,402.25284577560427,75.887C401.70584577560425,75.69,401.09784577560424,75.5064,400.4258457756043,75.3363C399.75384577560425,75.1662,399.0868457756043,74.9558,398.42484577560424,74.7051C397.76184577560423,74.45439999999999,397.15784577560424,74.1545,396.61184577560425,73.8053C396.06584577560426,73.45609999999999,395.62184577560424,72.9547,395.28184577560427,72.3011C394.94184577560424,71.64746,394.7718457756042,70.87298,394.7718457756042,69.97762C394.7718457756042,68.22272,395.42484577560424,66.81702,396.73284577560423,65.7605C398.03984577560425,64.70398,399.70984577560426,64.17571,401.74184577560425,64.17571ZM307.8148457756042,68.1511C309.73984577560424,68.1511,311.29284577560423,68.58982,312.47484577560425,69.46727C313.6568457756042,70.34472,314.2838457756043,71.5445,314.35484577560425,73.0666L309.65484577560426,73.0666L309.63184577560423,72.89959999999999C309.55984577560423,72.4707,309.38784577560426,72.1727,309.1178457756042,72.0056C308.8128457756043,71.81757999999999,308.35684577560426,71.72357,307.7478457756042,71.72357C306.5478457756043,71.72357,305.94784577560426,72.0907,305.94784577560426,72.8249C305.94784577560426,73.4874,306.68184577560424,73.944,308.15084577560424,74.1947C309.63684577560423,74.4454,310.98884577560426,74.8305,312.2068457756043,75.3498C312.83284577560426,75.6005,313.35684577560426,76.0168,313.77784577560425,76.5988C314.19884577560424,77.1808,314.4088457756043,77.8926,314.4088457756043,78.7342C314.4088457756043,80.131,313.80884577560425,81.27250000000001,312.6088457756042,82.1589C311.40984577560425,83.0453,309.8968457756042,83.4885,308.0698457756042,83.4885C306.24384577560426,83.4885,304.7208457756043,83.0722,303.50384577560425,82.23949999999999C302.28584577560423,81.4068,301.6228457756042,80.1757,301.51584577560425,78.5462L306.21684577560427,78.5462L306.24384577560426,78.7026C306.41984577560424,79.5116,307.05484577560424,79.9161,308.15084577560424,79.9161C308.6878457756043,79.9161,309.13084577560426,79.7907,309.47984577560425,79.53999999999999C309.82884577560424,79.2893,310.00384577560425,78.967,310.00384577560425,78.57300000000001C310.00384577560425,78.1791,309.71284577560425,77.8657,309.13084577560426,77.6329C308.54884577560426,77.4001,307.8458457756043,77.2031,307.0218457756042,77.042C306.19884577560424,76.8808,305.37084577560427,76.6794,304.53784577560424,76.4376C303.7048457756042,76.1959,302.9978457756042,75.7751,302.4158457756042,75.1752C301.83384577560423,74.5753,301.54284577560423,73.7918,301.54284577560423,72.8249C301.54284577560423,71.49973,302.10684577560426,70.38949,303.23484577560424,69.49413C304.3628457756042,68.59877,305.8898457756043,68.1511,307.8148457756042,68.1511ZM288.31784577560427,68.1511C290.2258457756043,68.1511,291.68884577560425,68.85843,292.7098457756042,70.27309L292.7098457756042,68.31226L297.3028457756043,68.31226L297.3028457756043,83.3005L292.7098457756042,83.3005L292.7098457756042,81.1248L292.54884577560426,81.3446C291.45784577560426,82.7739,290.02484577560426,83.4885,288.25084577560426,83.4885C286.38884577560424,83.4885,284.79484577560424,82.7723,283.46984577560426,81.3397C282.14484577560427,79.9071,281.48184577560426,78.0716,281.48184577560426,75.8333C281.48184577560426,73.5949,282.14484577560427,71.75489999999999,283.46984577560426,70.31338C284.79484577560424,68.87186,286.41084577560423,68.1511,288.31784577560427,68.1511ZM208.17944577560425,68.1511C210.38204577560424,68.1511,212.20854577560425,68.83157,213.65884577560425,70.19251C215.10984577560424,71.55345,215.83484577560426,73.4426,215.83484577560426,75.8601C215.83484577560426,76.3794,215.79884577560426,76.8629,215.72684577560426,77.3106L205.41284577560424,77.3106L205.45024577560423,77.527C205.57054577560424,78.092,205.85354577560423,78.5616,206.29924577560425,78.9357C206.80064577560427,79.3565,207.34234577560426,79.5669,207.92424577560425,79.5669C208.50624577560424,79.5669,208.94054577560425,79.5087,209.22704577560427,79.3923C209.51354577560426,79.27590000000001,209.72394577560425,79.15950000000001,209.85824577560425,79.0431C209.99254577560424,78.9267,210.16714577560424,78.7342,210.38204577560424,78.4656L215.35084577560423,78.4656L215.25984577560425,78.76259999999999C214.80484577560424,80.1303,213.97584577560423,81.2445,212.77284577560425,82.1052C211.48334577560425,83.0274,209.95224577560424,83.4885,208.17944577560425,83.4885C205.99484577560423,83.4885,204.20404577560424,82.78569999999999,202.80734577560423,81.38C201.41054577560425,79.9743,200.71214577560426,78.1075,200.71214577560426,75.7795C200.71214577560426,73.4516,201.40614577560424,71.59822,202.79394577560424,70.21937C204.18174577560424,68.84052,205.97684577560426,68.1511,208.17944577560425,68.1511ZM450.38684577560423,68.1511C452.5888457756042,68.1511,454.4158457756042,68.83157,455.86584577560427,70.19251C457.31684577560424,71.55345,458.04184577560426,73.4426,458.04184577560426,75.8601C458.04184577560426,76.3794,458.00584577560426,76.8629,457.93484577560423,77.3106L447.61984577560423,77.3106L447.65784577560424,77.527C447.77784577560425,78.092,448.06084577560426,78.5616,448.50684577560423,78.9357C449.00784577560427,79.3565,449.54984577560424,79.5669,450.13184577560423,79.5669C450.7138457756042,79.5669,451.14784577560425,79.5087,451.43384577560425,79.3923C451.72084577560423,79.27590000000001,451.93084577560427,79.15950000000001,452.06584577560426,79.0431C452.1998457756043,78.9267,452.37484577560423,78.7342,452.5888457756042,78.4656L457.55884577560425,78.4656L457.46684577560427,78.76259999999999C457.01184577560423,80.1303,456.1828457756042,81.2445,454.97984577560425,82.1052C453.69084577560426,83.0274,452.15984577560425,83.4885,450.38684577560423,83.4885C448.2018457756042,83.4885,446.41084577560423,82.78569999999999,445.0148457756043,81.38C443.6178457756042,79.9743,442.91984577560424,78.1075,442.91984577560424,75.7795C442.91984577560424,73.4516,443.61384577560426,71.59822,445.00084577560426,70.21937C446.38884577560424,68.84052,448.18384577560425,68.1511,450.38684577560423,68.1511ZM471.11884577560426,68.1511L471.11884577560426,72.8249L469.99084577560427,72.8249L469.73184577560426,72.8301C468.80384577560426,72.8684,468.09784577560424,73.1173,467.61384577560426,73.577C467.08484577560426,74.0784,466.82084577560425,74.9558,466.82084577560425,76.2093L466.82084577560425,83.3005L462.22784577560424,83.3005L462.22784577560424,68.31226L466.82084577560425,68.31226L466.82084577560425,71.10577L466.96284577560425,70.85443000000001C468.02084577560424,69.05221,469.40584577560423,68.1511,471.11884577560426,68.1511ZM196.55324577560424,63.42362L196.55324577560424,83.3005L191.96014577560425,83.3005L191.96014577560425,63.42362L196.55324577560424,63.42362ZM228.91184577560426,68.1511L228.91184577560426,72.8249L227.78284577560424,72.8249L227.52484577560426,72.8301C226.59684577560427,72.8684,225.89084577560425,73.1173,225.40584577560423,73.577C224.87784577560424,74.0784,224.61384577560426,74.9558,224.61384577560426,76.2093L224.61384577560426,83.3005L220.02084577560424,83.3005L220.02084577560424,68.31226L224.61384577560426,68.31226L224.61384577560426,71.10577L224.75584577560426,70.85443000000001C225.81384577560425,69.05221,227.19884577560424,68.1511,228.91184577560426,68.1511ZM440.10384577560427,62.268607L440.10384577560427,66.16341L439.90684577560427,66.16772C439.40084577560424,66.19071,439.03184577560427,66.30567,438.8008457756043,66.51259C438.5408457756042,66.74539,438.41084577560423,67.15725,438.41084577560423,67.74819L438.41084577560423,68.31226L440.31884577560425,68.31226L440.31884577560425,72.1265L438.41084577560423,72.1265L438.41084577560423,83.3005L433.81784577560427,83.3005L433.81784577560427,72.1265L432.42184577560425,72.1265L432.42184577560425,68.31226L433.81784577560427,68.31226L433.81784577560427,67.74819L433.82284577560426,67.43655C433.87584577560426,65.69741,434.3798457756042,64.41347999999999,435.33584577560424,63.58478C436.34784577560424,62.707331,437.93684577560424,62.268607,440.10384577560427,62.268607ZM160.89124577560426,68.1511C162.71774577560424,68.1511,164.16824577560425,68.71517,165.24264577560425,69.84332C166.31704577560424,70.97147,166.85434577560426,72.53829999999999,166.85434577560426,74.54390000000001L166.85434577560426,83.3005L162.28794577560424,83.3005L162.28794577560424,75.1617L162.28264577560424,74.9246C162.24364577560425,74.07169999999999,161.99024577560425,73.4031,161.52244577560424,72.91890000000001C161.01214577560424,72.3906,160.30924577560424,72.1265,159.41384577560424,72.1265C158.51854577560425,72.1265,157.81564577560425,72.3906,157.30534577560425,72.91890000000001C156.79494577560425,73.4471,156.53984577560425,74.1947,156.53984577560425,75.1617L156.53984577560425,83.3005L151.97344577560426,83.3005L151.97344577560426,75.1617L151.96814577560426,74.9246C151.92914577560424,74.07169999999999,151.67574577560424,73.4031,151.20794577560426,72.91890000000001C150.69764577560426,72.3906,149.99474577560426,72.1265,149.09934577560426,72.1265C148.20404577560424,72.1265,147.50114577560424,72.3906,146.99084577560424,72.91890000000001C146.48044577560424,73.4471,146.22534577560424,74.1947,146.22534577560424,75.1617L146.22534577560424,83.3005L141.63214577560424,83.3005L141.63214577560424,68.31226L146.22534577560424,68.31226L146.22534577560424,70.51483999999999L146.35824577560425,70.30483C147.31314577560426,68.86901,148.78194577560424,68.1511,150.76474577560424,68.1511C151.87504577560424,68.1511,152.86434577560425,68.4018,153.73284577560423,68.9032C154.60134577560424,69.40459,155.27734577560426,70.12088,155.76084577560425,71.05205C156.31594577560423,70.1746,157.03674577560423,69.47175,157.92314577560424,68.94349C158.80954577560425,68.41523,159.79894577560424,68.1511,160.89124577560426,68.1511ZM278.1828457756043,64.44432L278.1828457756043,67.93621L270.50084577560426,67.93621L270.50084577560426,71.99217L276.24884577560425,71.99217L276.24884577560425,75.4841L270.50084577560426,75.4841L270.50084577560426,83.3005L265.90784577560424,83.3005L265.90784577560424,64.44432L278.1828457756043,64.44432ZM136.37194577560425,68.31226L136.37194577560425,83.3005L131.77874577560425,83.3005L131.77874577560425,68.31226L136.37194577560425,68.31226ZM323.67184577560425,64.65921L323.67184577560425,68.31226L326.67984577560424,68.31226L326.67984577560424,72.1265L323.67184577560425,72.1265L323.67184577560425,78.3582L323.67684577560425,78.485C323.73184577560426,79.0988,324.1948457756042,79.4057,325.06784577560427,79.4057L326.7068457756043,79.4057L326.7068457756043,83.3005L324.3698457756043,83.3005L324.03784577560424,83.29560000000001C322.5148457756043,83.2493,321.3218457756043,82.8794,320.4618457756043,82.1858C319.53984577560425,81.4427,319.07784577560426,80.1668,319.07784577560426,78.3582L319.07784577560426,72.1265L317.68184577560424,72.1265L317.68184577560424,68.31226L319.07784577560426,68.31226L319.07784577560426,64.65921L323.67184577560425,64.65921ZM358.17884577560426,68.1511L358.17884577560426,72.8249L357.04984577560424,72.8249L356.79184577560426,72.8301C355.86384577560426,72.8684,355.15784577560424,73.1173,354.6728457756043,73.577C354.14484577560427,74.0784,353.88084577560426,74.9558,353.88084577560426,76.2093L353.88084577560426,83.3005L349.28784577560424,83.3005L349.28784577560424,68.31226L353.88084577560426,68.31226L353.88084577560426,71.10577L354.02284577560425,70.85443000000001C355.08084577560425,69.05221,356.46584577560424,68.1511,358.17884577560426,68.1511ZM246.64384577560423,70.29995C247.78084577560423,70.29995,248.73884577560426,70.68943,249.51784577560426,71.46839C250.29684577560425,72.2473,250.68684577560424,73.2099,250.68684577560424,74.3559C250.68684577560424,75.4841,250.29684577560425,76.4376,249.51784577560426,77.2166C248.73884577560426,77.99549999999999,247.78084577560423,78.385,246.64384577560423,78.385C245.50684577560426,78.385,244.54884577560424,77.99549999999999,243.76984577560424,77.2166C242.99084577560424,76.4376,242.60184577560426,75.4796,242.60184577560426,74.3425C242.60184577560426,73.2054,242.99084577560424,72.2473,243.76984577560424,71.46839C244.54884577560424,70.68943,245.50684577560426,70.29995,246.64384577560423,70.29995ZM375.91084577560423,70.29995C377.04784577560423,70.29995,378.00584577560426,70.68943,378.78484577560425,71.46839C379.56384577560425,72.2473,379.95384577560424,73.2099,379.95384577560424,74.3559C379.95384577560424,75.4841,379.56384577560425,76.4376,378.78484577560425,77.2166C378.00584577560426,77.99549999999999,377.04784577560423,78.385,375.91084577560423,78.385C374.77384577560423,78.385,373.81584577560426,77.99549999999999,373.03684577560426,77.2166C372.25784577560427,76.4376,371.86884577560426,75.4796,371.86884577560426,74.3425C371.86884577560426,73.2054,372.25784577560427,72.2473,373.03684577560426,71.46839C373.81584577560426,70.68943,374.77384577560423,70.29995,375.91084577560423,70.29995ZM134.06184577560424,62C134.81394577560425,62,135.44964577560424,62.259653,135.96894577560425,62.77896C136.48834577560424,63.29827,136.74794577560425,63.93845,136.74794577560425,64.6995C136.74794577560425,65.46055,136.48834577560424,66.10073,135.96894577560425,66.62004C135.44964577560424,67.13934,134.81394577560425,67.399,134.06184577560424,67.399C133.30984577560426,67.399,132.67404577560424,67.13934,132.15474577560425,66.62004C131.63544577560424,66.10073,131.37584577560426,65.46055,131.37584577560426,64.6995C131.37584577560426,63.93845,131.63544577560424,63.29827,132.15474577560425,62.77896C132.67404577560424,62.259653,133.30984577560426,62,134.06184577560424,62Z" fill="#0067F7" fill-opacity="1"/></g><g><path d="M180.96514577560424,65.1511C182.87224577560426,65.1511,184.48834577560424,65.87186,185.81344577560424,67.31338C187.13854577560426,68.75489999999999,187.80114577560425,70.5949,187.80114577560425,72.8333C187.80114577560425,75.0716,187.13854577560426,76.9071,185.81344577560424,78.3397C184.48834577560424,79.7723,182.88564577560425,80.4885,181.00544577560424,80.4885C179.12514577560427,80.4885,177.64784577560425,79.70060000000001,176.57334577560425,78.1248L176.57334577560425,87.4455L171.98024577560426,87.4455L171.98024577560426,65.31226L176.57334577560425,65.31226L176.57334577560425,67.27309L176.72984577560425,67.0662C177.74164577560424,65.78946,179.15334577560424,65.1511,180.96514577560424,65.1511ZM337.4468457756043,65.1511C339.6488457756043,65.1511,341.4758457756043,65.83157,342.9258457756042,67.19251C344.37684577560424,68.55345,345.10184577560426,70.4426,345.10184577560426,72.8601C345.10184577560426,73.3794,345.06584577560426,73.8629,344.9948457756043,74.3106L334.67984577560424,74.3106L334.71684577560427,74.527C334.83784577560425,75.092,335.12084577560427,75.5616,335.56584577560426,75.9357C336.06784577560427,76.3565,336.60984577560424,76.5669,337.19084577560426,76.5669C337.77284577560425,76.5669,338.20784577560426,76.5087,338.49384577560426,76.3923C338.78084577560423,76.27590000000001,338.99084577560427,76.15950000000001,339.1248457756043,76.0431C339.2598457756043,75.9267,339.43384577560425,75.7342,339.6488457756043,75.4656L344.6178457756042,75.4656L344.5268457756042,75.76259999999999C344.0718457756043,77.1303,343.2428457756042,78.2445,342.03984577560425,79.1052C340.75084577560426,80.0274,339.2188457756042,80.4885,337.4468457756043,80.4885C335.26184577560423,80.4885,333.4708457756043,79.78569999999999,332.0748457756042,78.38C330.6778457756043,76.9743,329.9788457756042,75.1075,329.9788457756042,72.7795C329.9788457756042,70.4516,330.6728457756043,68.59822,332.0608457756042,67.21937C333.44884577560424,65.84052,335.24384577560426,65.1511,337.4468457756043,65.1511ZM419.51884577560423,65.1511C421.42684577560425,65.1511,422.8898457756043,65.85843,423.91084577560423,67.27309L423.91084577560423,65.31226L428.50384577560425,65.31226L428.50384577560425,80.3005L423.91084577560423,80.3005L423.91084577560423,78.1248L423.74984577560423,78.3446C422.6588457756042,79.7739,421.2258457756042,80.4885,419.4518457756042,80.4885C417.58984577560426,80.4885,415.99584577560427,79.7723,414.6708457756042,78.3397C413.34584577560423,76.9071,412.6828457756042,75.0716,412.6828457756042,72.8333C412.6828457756042,70.5949,413.34584577560423,68.75489999999999,414.6708457756042,67.31338C415.99584577560427,65.87186,417.61184577560425,65.1511,419.51884577560423,65.1511ZM119.73619577560424,61.17572C121.76865577560424,61.17572,123.41164577560424,61.63682,124.66514577560424,62.55904C125.91864577560425,63.48126,126.57224577560424,64.93621,126.62594577560425,66.9239L121.62987577560425,66.9239L121.60052577560425,66.70288C121.50767577560424,66.12897,121.29809577560425,65.67886,120.97178577560425,65.35255C120.60468577560425,64.98546,120.13462577560425,64.80191,119.56159577560425,64.80191C118.98856577560424,64.80191,118.51850577560425,64.95412,118.15141577560425,65.25854C117.78431577560424,65.56296,117.60076577560424,66.00168,117.60076577560424,66.57471C117.60076577560424,67.14774,117.77088577560424,67.60885,118.11112577560425,67.95804C118.45136577560424,68.30723,118.89456577560425,68.57583,119.44072577560425,68.76386C119.98689577560425,68.95188,120.59574577560424,69.131,121.26725577560424,69.3011C121.93877577560424,69.4712,122.60581577560424,69.6771,123.26834577560425,69.91890000000001C123.93094577560424,70.1606,124.53534577560424,70.4606,125.08144577560425,70.8187C125.62764577560425,71.1768,126.07084577560425,71.6827,126.41104577560425,72.3363C126.75134577560425,72.9899,126.92144577560424,73.7734,126.92144577560424,74.6866C126.92144577560424,76.2804,126.27224577560425,77.64580000000001,124.97404577560425,78.7829C123.67574577560424,79.92,121.96562577560425,80.4885,119.84363577560424,80.4885C117.72164577560424,80.4885,116.01151577560425,79.9782,114.71324577560425,78.9575C113.41498477560425,77.9368,112.76584577560425,76.4863,112.76584577560425,74.6061L117.65449577560425,74.6061L117.67449577560424,74.798C117.84802577560424,76.1742,118.61135577560425,76.86240000000001,119.96451577560424,76.86240000000001C120.62707577560425,76.86240000000001,121.14638577560424,76.6878,121.52242577560425,76.3386C121.89848577560424,75.9894,122.08650577560425,75.5462,122.08650577560425,75.009C122.08650577560425,74.4718,121.91638577560425,74.033,121.57615577560425,73.6928C121.23591577560424,73.3526,120.79271577560425,73.084,120.24655577560425,72.887C119.70037577560424,72.69,119.09153577560424,72.5064,118.42001577560424,72.3363C117.74850577560424,72.1662,117.08146577560424,71.9558,116.41889577560424,71.7051C115.75633577560424,71.45439999999999,115.15196577560425,71.1545,114.60580577560425,70.8053C114.05963577560425,70.45609999999999,113.61643977560425,69.9547,113.27619877560424,69.3011C112.93596577560425,68.64746,112.76584577560425,67.87298,112.76584577560425,66.97762C112.76584577560425,65.22272,113.41945577560425,63.81702,114.72667577560425,62.7605C116.03389577560425,61.70398,117.70373577560424,61.17572,119.73619577560424,61.17572ZM401.74184577560425,61.17572C403.77484577560426,61.17572,405.41784577560423,61.63682,406.6708457756042,62.55904C407.92484577560424,63.48126,408.57784577560426,64.93621,408.63184577560423,66.9239L403.63584577560425,66.9239L403.60684577560426,66.70288C403.51384577560424,66.12897,403.30384577560426,65.67886,402.97784577560424,65.35255C402.6108457756043,64.98546,402.14084577560425,64.80191,401.56784577560427,64.80191C400.99484577560423,64.80191,400.52384577560423,64.95412,400.15684577560427,65.25854C399.78984577560425,65.56296,399.60684577560426,66.00168,399.60684577560426,66.57471C399.60684577560426,67.14774,399.7768457756043,67.60885,400.11684577560425,67.95804C400.4568457756042,68.30723,400.90084577560424,68.57583,401.44684577560423,68.76386C401.9928457756042,68.95188,402.60184577560426,69.131,403.27284577560425,69.3011C403.9448457756042,69.4712,404.61184577560425,69.6771,405.27384577560423,69.91890000000001C405.93684577560424,70.1606,406.5408457756042,70.4606,407.0868457756043,70.8187C407.63384577560424,71.1768,408.0768457756042,71.6827,408.41684577560426,72.3363C408.75684577560423,72.9899,408.92684577560425,73.7734,408.92684577560425,74.6866C408.92684577560425,76.2804,408.27784577560425,77.64580000000001,406.97984577560425,78.7829C405.68184577560424,79.92,403.97184577560427,80.4885,401.84984577560425,80.4885C399.72784577560424,80.4885,398.0168457756042,79.9782,396.7188457756042,78.9575C395.4208457756042,77.9368,394.7718457756042,76.4863,394.7718457756042,74.6061L399.65984577560425,74.6061L399.67984577560424,74.798C399.85384577560427,76.1742,400.61684577560425,76.86240000000001,401.96984577560426,76.86240000000001C402.63284577560427,76.86240000000001,403.1518457756043,76.6878,403.52784577560425,76.3386C403.9038457756042,75.9894,404.09184577560427,75.5462,404.09184577560427,75.009C404.09184577560427,74.4718,403.92184577560425,74.033,403.5818457756042,73.6928C403.24184577560425,73.3526,402.79884577560426,73.084,402.25284577560427,72.887C401.70584577560425,72.69,401.09784577560424,72.5064,400.4258457756043,72.3363C399.75384577560425,72.1662,399.0868457756043,71.9558,398.42484577560424,71.7051C397.76184577560423,71.45439999999999,397.15784577560424,71.1545,396.61184577560425,70.8053C396.06584577560426,70.45609999999999,395.62184577560424,69.9547,395.28184577560427,69.3011C394.94184577560424,68.64746,394.7718457756042,67.87298,394.7718457756042,66.97762C394.7718457756042,65.22272,395.42484577560424,63.81702,396.73284577560423,62.7605C398.03984577560425,61.70398,399.70984577560426,61.17572,401.74184577560425,61.17572ZM307.8148457756042,65.1511C309.73984577560424,65.1511,311.29284577560423,65.58982,312.47484577560425,66.46727C313.6568457756042,67.34472,314.2838457756043,68.5445,314.35484577560425,70.0666L309.65484577560426,70.0666L309.63184577560423,69.89959999999999C309.55984577560423,69.4707,309.38784577560426,69.1727,309.1178457756042,69.0056C308.8128457756043,68.81757999999999,308.35684577560426,68.72357,307.7478457756042,68.72357C306.5478457756043,68.72357,305.94784577560426,69.0907,305.94784577560426,69.8249C305.94784577560426,70.4874,306.68184577560424,70.944,308.15084577560424,71.1947C309.63684577560423,71.4454,310.98884577560426,71.8305,312.2068457756043,72.3498C312.83284577560426,72.6005,313.35684577560426,73.0168,313.77784577560425,73.5988C314.19884577560424,74.1808,314.4088457756043,74.8926,314.4088457756043,75.7342C314.4088457756043,77.131,313.80884577560425,78.27250000000001,312.6088457756042,79.1589C311.40984577560425,80.0453,309.8968457756042,80.4885,308.0698457756042,80.4885C306.24384577560426,80.4885,304.7208457756043,80.0722,303.50384577560425,79.23949999999999C302.28584577560423,78.4068,301.6228457756042,77.1757,301.51584577560425,75.5462L306.21684577560427,75.5462L306.24384577560426,75.7026C306.41984577560424,76.5116,307.05484577560424,76.9161,308.15084577560424,76.9161C308.6878457756043,76.9161,309.13084577560426,76.7907,309.47984577560425,76.53999999999999C309.82884577560424,76.2893,310.00384577560425,75.967,310.00384577560425,75.57300000000001C310.00384577560425,75.1791,309.71284577560425,74.8657,309.13084577560426,74.6329C308.54884577560426,74.4001,307.8458457756043,74.2031,307.0218457756042,74.042C306.19884577560424,73.8808,305.37084577560427,73.6794,304.53784577560424,73.4376C303.7048457756042,73.1959,302.9978457756042,72.7751,302.4158457756042,72.1752C301.83384577560423,71.5753,301.54284577560423,70.7918,301.54284577560423,69.8249C301.54284577560423,68.49973,302.10684577560426,67.38949,303.23484577560424,66.49413C304.3628457756042,65.59877,305.8898457756043,65.1511,307.8148457756042,65.1511ZM288.31784577560427,65.1511C290.2258457756043,65.1511,291.68884577560425,65.85843,292.7098457756042,67.27309L292.7098457756042,65.31226L297.3028457756043,65.31226L297.3028457756043,80.3005L292.7098457756042,80.3005L292.7098457756042,78.1248L292.54884577560426,78.3446C291.45784577560426,79.7739,290.02484577560426,80.4885,288.25084577560426,80.4885C286.38884577560424,80.4885,284.79484577560424,79.7723,283.46984577560426,78.3397C282.14484577560427,76.9071,281.48184577560426,75.0716,281.48184577560426,72.8333C281.48184577560426,70.5949,282.14484577560427,68.75489999999999,283.46984577560426,67.31338C284.79484577560424,65.87186,286.41084577560423,65.1511,288.31784577560427,65.1511ZM208.17944577560425,65.1511C210.38204577560424,65.1511,212.20854577560425,65.83157,213.65884577560425,67.19251C215.10984577560424,68.55345,215.83484577560426,70.4426,215.83484577560426,72.8601C215.83484577560426,73.3794,215.79884577560426,73.8629,215.72684577560426,74.3106L205.41284577560424,74.3106L205.45024577560423,74.527C205.57054577560424,75.092,205.85354577560423,75.5616,206.29924577560425,75.9357C206.80064577560427,76.3565,207.34234577560426,76.5669,207.92424577560425,76.5669C208.50624577560424,76.5669,208.94054577560425,76.5087,209.22704577560427,76.3923C209.51354577560426,76.27590000000001,209.72394577560425,76.15950000000001,209.85824577560425,76.0431C209.99254577560424,75.9267,210.16714577560424,75.7342,210.38204577560424,75.4656L215.35084577560423,75.4656L215.25984577560425,75.76259999999999C214.80484577560424,77.1303,213.97584577560423,78.2445,212.77284577560425,79.1052C211.48334577560425,80.0274,209.95224577560424,80.4885,208.17944577560425,80.4885C205.99484577560423,80.4885,204.20404577560424,79.78569999999999,202.80734577560423,78.38C201.41054577560425,76.9743,200.71214577560426,75.1075,200.71214577560426,72.7795C200.71214577560426,70.4516,201.40614577560424,68.59822,202.79394577560424,67.21937C204.18174577560424,65.84052,205.97684577560426,65.1511,208.17944577560425,65.1511ZM450.38684577560423,65.1511C452.5888457756042,65.1511,454.4158457756042,65.83157,455.86584577560427,67.19251C457.31684577560424,68.55345,458.04184577560426,70.4426,458.04184577560426,72.8601C458.04184577560426,73.3794,458.00584577560426,73.8629,457.93484577560423,74.3106L447.61984577560423,74.3106L447.65784577560424,74.527C447.77784577560425,75.092,448.06084577560426,75.5616,448.50684577560423,75.9357C449.00784577560427,76.3565,449.54984577560424,76.5669,450.13184577560423,76.5669C450.7138457756042,76.5669,451.14784577560425,76.5087,451.43384577560425,76.3923C451.72084577560423,76.27590000000001,451.93084577560427,76.15950000000001,452.06584577560426,76.0431C452.1998457756043,75.9267,452.37484577560423,75.7342,452.5888457756042,75.4656L457.55884577560425,75.4656L457.46684577560427,75.76259999999999C457.01184577560423,77.1303,456.1828457756042,78.2445,454.97984577560425,79.1052C453.69084577560426,80.0274,452.15984577560425,80.4885,450.38684577560423,80.4885C448.2018457756042,80.4885,446.41084577560423,79.78569999999999,445.0148457756043,78.38C443.6178457756042,76.9743,442.91984577560424,75.1075,442.91984577560424,72.7795C442.91984577560424,70.4516,443.61384577560426,68.59822,445.00084577560426,67.21937C446.38884577560424,65.84052,448.18384577560425,65.1511,450.38684577560423,65.1511ZM471.11884577560426,65.1511L471.11884577560426,69.8249L469.99084577560427,69.8249L469.73184577560426,69.8301C468.80384577560426,69.8684,468.09784577560424,70.1173,467.61384577560426,70.577C467.08484577560426,71.0784,466.82084577560425,71.9558,466.82084577560425,73.2093L466.82084577560425,80.3005L462.22784577560424,80.3005L462.22784577560424,65.31226L466.82084577560425,65.31226L466.82084577560425,68.10577L466.96284577560425,67.85443000000001C468.02084577560424,66.05221,469.40584577560423,65.1511,471.11884577560426,65.1511ZM323.67184577560425,61.65921L323.67184577560425,65.31226L326.67984577560424,65.31226L326.67984577560424,69.1265L323.67184577560425,69.1265L323.67184577560425,75.3582L323.67684577560425,75.485C323.73184577560426,76.0988,324.1948457756042,76.4057,325.06784577560427,76.4057L326.7068457756043,76.4057L326.7068457756043,80.3005L324.3698457756043,80.3005L324.03784577560424,80.29560000000001C322.5148457756043,80.2493,321.3218457756043,79.8794,320.4618457756043,79.1858C319.53984577560425,78.4427,319.07784577560426,77.1668,319.07784577560426,75.3582L319.07784577560426,69.1265L317.68184577560424,69.1265L317.68184577560424,65.31226L319.07784577560426,65.31226L319.07784577560426,61.65921L323.67184577560425,61.65921ZM358.17884577560426,65.1511L358.17884577560426,69.8249L357.04984577560424,69.8249L356.79184577560426,69.8301C355.86384577560426,69.8684,355.15784577560424,70.1173,354.6728457756043,70.577C354.14484577560427,71.0784,353.88084577560426,71.9558,353.88084577560426,73.2093L353.88084577560426,80.3005L349.28784577560424,80.3005L349.28784577560424,65.31226L353.88084577560426,65.31226L353.88084577560426,68.10577L354.02284577560425,67.85443000000001C355.08084577560425,66.05221,356.46584577560424,65.1511,358.17884577560426,65.1511ZM160.89124577560426,65.1511C162.71774577560424,65.1511,164.16824577560425,65.71517,165.24264577560425,66.84332C166.31704577560424,67.97147,166.85434577560426,69.53829999999999,166.85434577560426,71.54390000000001L166.85434577560426,80.3005L162.28794577560424,80.3005L162.28794577560424,72.1617L162.28264577560424,71.9246C162.24364577560425,71.07169999999999,161.99024577560425,70.4031,161.52244577560424,69.91890000000001C161.01214577560424,69.3906,160.30924577560424,69.1265,159.41384577560424,69.1265C158.51854577560425,69.1265,157.81564577560425,69.3906,157.30534577560425,69.91890000000001C156.79494577560425,70.4471,156.53984577560425,71.1947,156.53984577560425,72.1617L156.53984577560425,80.3005L151.97344577560426,80.3005L151.97344577560426,72.1617L151.96814577560426,71.9246C151.92914577560424,71.07169999999999,151.67574577560424,70.4031,151.20794577560426,69.91890000000001C150.69764577560426,69.3906,149.99474577560426,69.1265,149.09934577560426,69.1265C148.20404577560424,69.1265,147.50114577560424,69.3906,146.99084577560424,69.91890000000001C146.48044577560424,70.4471,146.22534577560424,71.1947,146.22534577560424,72.1617L146.22534577560424,80.3005L141.63214577560424,80.3005L141.63214577560424,65.31226L146.22534577560424,65.31226L146.22534577560424,67.51483999999999L146.35824577560425,67.30483C147.31314577560426,65.86901,148.78194577560424,65.1511,150.76474577560424,65.1511C151.87504577560424,65.1511,152.86434577560425,65.4018,153.73284577560423,65.90319C154.60134577560424,66.40459,155.27734577560426,67.12088,155.76084577560425,68.05205C156.31594577560423,67.1746,157.03674577560423,66.47175,157.92314577560424,65.94349C158.80954577560425,65.41523,159.79894577560424,65.1511,160.89124577560426,65.1511ZM440.10384577560427,59.268607L440.10384577560427,63.16341L439.90684577560427,63.16772C439.40084577560424,63.19071,439.03184577560427,63.30567,438.8008457756043,63.51259C438.5408457756042,63.74539,438.41084577560423,64.15725,438.41084577560423,64.74819L438.41084577560423,65.31226L440.31884577560425,65.31226L440.31884577560425,69.1265L438.41084577560423,69.1265L438.41084577560423,80.3005L433.81784577560427,80.3005L433.81784577560427,69.1265L432.42184577560425,69.1265L432.42184577560425,65.31226L433.81784577560427,65.31226L433.81784577560427,64.74819L433.82284577560426,64.43655C433.87584577560426,62.69741,434.3798457756042,61.41348,435.33584577560424,60.58478C436.34784577560424,59.707331,437.93684577560424,59.268607,440.10384577560427,59.268607ZM278.1828457756043,61.44432L278.1828457756043,64.93621L270.50084577560426,64.93621L270.50084577560426,68.99217L276.24884577560425,68.99217L276.24884577560425,72.4841L270.50084577560426,72.4841L270.50084577560426,80.3005L265.90784577560424,80.3005L265.90784577560424,61.44432L278.1828457756043,61.44432ZM136.37194577560425,65.31226L136.37194577560425,80.3005L131.77874577560425,80.3005L131.77874577560425,65.31226L136.37194577560425,65.31226ZM196.55324577560424,60.42362L196.55324577560424,80.3005L191.96014577560425,80.3005L191.96014577560425,60.42362L196.55324577560424,60.42362ZM228.91184577560426,65.1511L228.91184577560426,69.8249L227.78284577560424,69.8249L227.52484577560426,69.8301C226.59684577560427,69.8684,225.89084577560425,70.1173,225.40584577560423,70.577C224.87784577560424,71.0784,224.61384577560426,71.9558,224.61384577560426,73.2093L224.61384577560426,80.3005L220.02084577560424,80.3005L220.02084577560424,65.31226L224.61384577560426,65.31226L224.61384577560426,68.10577L224.75584577560426,67.85443000000001C225.81384577560425,66.05221,227.19884577560424,65.1511,228.91184577560426,65.1511ZM375.91084577560423,67.29995C377.04784577560423,67.29995,378.00584577560426,67.68943,378.78484577560425,68.46839C379.56384577560425,69.2473,379.95384577560424,70.2099,379.95384577560424,71.3559C379.95384577560424,72.4841,379.56384577560425,73.4376,378.78484577560425,74.2166C378.00584577560426,74.99549999999999,377.04784577560423,75.385,375.91084577560423,75.385C374.77384577560423,75.385,373.81584577560426,74.99549999999999,373.03684577560426,74.2166C372.25784577560427,73.4376,371.86884577560426,72.4796,371.86884577560426,71.3425C371.86884577560426,70.2054,372.25784577560427,69.2473,373.03684577560426,68.46839C373.81584577560426,67.68943,374.77384577560423,67.29995,375.91084577560423,67.29995ZM246.64384577560423,67.29995C247.78084577560423,67.29995,248.73884577560426,67.68943,249.51784577560426,68.46839C250.29684577560425,69.2473,250.68684577560424,70.2099,250.68684577560424,71.3559C250.68684577560424,72.4841,250.29684577560425,73.4376,249.51784577560426,74.2166C248.73884577560426,74.99549999999999,247.78084577560423,75.385,246.64384577560423,75.385C245.50684577560426,75.385,244.54884577560424,74.99549999999999,243.76984577560424,74.2166C242.99084577560424,73.4376,242.60184577560426,72.4796,242.60184577560426,71.3425C242.60184577560426,70.2054,242.99084577560424,69.2473,243.76984577560424,68.46839C244.54884577560424,67.68943,245.50684577560426,67.29995,246.64384577560423,67.29995ZM134.06184577560424,59C134.81394577560425,59,135.44964577560424,59.259653,135.96894577560425,59.77896C136.48834577560424,60.29827,136.74794577560425,60.93845,136.74794577560425,61.6995C136.74794577560425,62.46055,136.48834577560424,63.10073,135.96894577560425,63.62004C135.44964577560424,64.13934,134.81394577560425,64.399,134.06184577560424,64.399C133.30984577560426,64.399,132.67404577560424,64.13934,132.15474577560425,63.62004C131.63544577560424,63.10073,131.37584577560426,62.46055,131.37584577560426,61.6995C131.37584577560426,60.93845,131.63544577560424,60.29827,132.15474577560425,59.77896C132.67404577560424,59.259653,133.30984577560426,59,134.06184577560424,59Z" fill="#FFFFFF" fill-opacity="1"/></g><g><path d="M179.85040429855346,76.51316724151611C178.99086429855348,76.51316724151611,178.22981429855346,76.1908372415161,177.56724529855347,75.54617724151612C176.90467829855348,74.9015272415161,176.57339429855347,73.98825724151611,176.57339429855347,72.80638724151612C176.57339429855347,71.62451724151612,176.90467829855348,70.71573724151611,177.56724529855347,70.08003124151611C178.22981429855346,69.44432824151612,178.99086429855348,69.12647724151611,179.85040429855346,69.12647724151611C180.70994429855347,69.12647724151611,181.47099429855348,69.44880524151611,182.13356429855347,70.09346124151611C182.79612429855348,70.73811724151611,183.12741429855348,71.65137724151612,183.12741429855348,72.83324724151612C183.12741429855348,74.01511724151611,182.79612429855348,74.92838724151612,182.13356429855347,75.57303724151612C181.47099429855348,76.19978724151612,180.70994429855347,76.51316724151611,179.85040429855346,76.51316724151611Z" fill="#855d5d" fill-opacity="1"/></g><g><path d="M211.05356152999877,71.43649581359864L205.43968152999878,71.43649581359864C205.56503252999877,70.73811581359864,205.87840252999877,70.16956581359864,206.37980652999877,69.73084181359863C206.88119152999877,69.29211781359864,207.4989915299988,69.07275581359863,208.23318152999877,69.07275581359863C208.9673715299988,69.07275581359863,209.60309152999878,69.29211781359864,210.1402915299988,69.73084181359863C210.67750152999878,70.16956581359864,210.98193152999877,70.73811581359864,211.05356152999877,71.43649581359864Z" fill="#855d5d" fill-opacity="1"/></g><g><path d="M289.43301590011595,76.51316724151611C288.57348590011594,76.51316724151611,287.812435900116,76.19531724151611,287.14987090011596,75.55960724151612C286.487303900116,74.92390724151612,286.15603590011597,74.01511724151611,286.15603590011597,72.83324724151612C286.15603590011597,71.65137724151612,286.487303900116,70.73811724151611,287.14987090011596,70.09346124151611C287.812435900116,69.44880524151611,288.57348590011594,69.12647724151611,289.43301590011595,69.12647724151611C290.292575900116,69.12647724151611,291.053615900116,69.44432824151612,291.716185900116,70.08003124151611C292.37875590011595,70.71573724151611,292.71002590011597,71.62451724151612,292.71002590011597,72.80638724151612C292.71002590011597,73.98825724151611,292.37875590011595,74.9015272415161,291.716185900116,75.54617724151612C291.053615900116,76.1908372415161,290.292575900116,76.51316724151611,289.43301590011595,76.51316724151611Z" fill="#855d5d" fill-opacity="1"/></g><g><path d="M340.3205850798035,71.43649581359864L334.70669507980347,71.43649581359864C334.83206107980345,70.73811581359864,335.14541607980345,70.16956581359864,335.6468200798035,69.73084181359863C336.14822507980347,69.29211781359864,336.76602507980346,69.07275581359863,337.50021507980347,69.07275581359863C338.2344050798035,69.07275581359863,338.87011507980344,69.29211781359864,339.4073150798035,69.73084181359863C339.94454507980345,70.16956581359864,340.24896507980344,70.73811581359864,340.3205850798035,71.43649581359864Z" fill="#855d5d" fill-opacity="1"/></g><g><path d="M453.2608011442566,71.43649581359864L447.6469111442566,71.43649581359864C447.7722771442566,70.73811581359864,448.0856321442566,70.16956581359864,448.5870361442566,69.73084181359863C449.0884411442566,69.29211781359864,449.7062411442566,69.07275581359863,450.4404311442566,69.07275581359863C451.1746211442566,69.07275581359863,451.81033114425657,69.29211781359864,452.3475311442566,69.73084181359863C452.8847611442566,70.16956581359864,453.18918114425657,70.73811581359864,453.2608011442566,71.43649581359864Z" fill="#855d5d" fill-opacity="1"/></g><g><path d="M420.6340046696472,76.51316724151611C419.7744746696472,76.51316724151611,419.01342466964724,76.19531724151611,418.3508596696472,75.55960724151612C417.68829266964724,74.92390724151612,417.3570246696472,74.01511724151611,417.3570246696472,72.83324724151612C417.3570246696472,71.65137724151612,417.68829266964724,70.73811724151611,418.3508596696472,70.09346124151611C419.01342466964724,69.44880524151611,419.7744746696472,69.12647724151611,420.6340046696472,69.12647724151611C421.49356466964724,69.12647724151611,422.2546046696472,69.44432824151612,422.91717466964724,70.08003124151611C423.5797446696472,70.71573724151611,423.9110146696472,71.62451724151612,423.9110146696472,72.80638724151612C423.9110146696472,73.98825724151611,423.5797446696472,74.9015272415161,422.91717466964724,75.54617724151612C422.2546046696472,76.1908372415161,421.49356466964724,76.51316724151611,420.6340046696472,76.51316724151611Z" fill="#855d5d" fill-opacity="1"/></g></g></g></g><g><path d="M65.804,41L73.768,41L62.592,10.111999999999998L53.88,10.111999999999998L42.704,41L50.58,41L52.428,35.544L63.956,35.544L65.804,41ZM62.019999999999996,29.735999999999997L54.408,29.735999999999997L58.192,18.428L62.019999999999996,29.735999999999997ZM88.156,41L95.68,41L95.68,8.44L88.156,8.44L88.156,41ZM112.136,41L119.66,41L119.66,8.44L112.136,8.44L112.136,41ZM134.62,28.723999999999997C134.62,36.512,139.724,41.352,146.94,41.352C153.1,41.352,157.45600000000002,37.788,158.732,32.112L150.724,32.112C150.064,33.916,148.876,34.928,146.808,34.928C144.124,34.928,142.276,32.816,142.276,28.723999999999997C142.276,24.632,144.124,22.52,146.808,22.52C148.876,22.52,150.108,23.62,150.724,25.336L158.732,25.336C157.45600000000002,19.484,153.1,16.096,146.94,16.096C139.724,16.096,134.62,20.98,134.62,28.723999999999997ZM173.736,41L181.26,41L181.26,27.668C181.26,24.324,183.108,22.476,185.968,22.476C188.828,22.476,190.676,24.324,190.676,27.668L190.676,41L198.156,41L198.156,26.656C198.156,20.056,194.416,16.184,188.828,16.184C185.44,16.184,182.756,17.636,181.26,19.748L181.26,8.44L173.736,8.44L173.736,41ZM212.896,28.68C212.896,36.424,217.692,41.352,223.676,41.352C227.328,41.352,229.924,39.68,231.288,37.524L231.288,41L238.812,41L238.812,16.448L231.288,16.448L231.288,19.924C229.968,17.768,227.372,16.096,223.72,16.096C217.692,16.096,212.896,20.936,212.896,28.68ZM231.288,28.723999999999997C231.288,32.64,228.78,34.796,225.92,34.796C223.104,34.796,220.552,32.596,220.552,28.68C220.552,24.764,223.104,22.652,225.92,22.652C228.78,22.652,231.288,24.808,231.288,28.723999999999997ZM255.268,41L262.79200000000003,41L262.79200000000003,16.448L255.268,16.448L255.268,41ZM259.052,13.896C261.692,13.896,263.496,12.091999999999999,263.496,9.847999999999999C263.496,7.5600000000000005,261.692,5.756,259.052,5.756C256.368,5.756,254.564,7.5600000000000005,254.564,9.847999999999999C254.564,12.091999999999999,256.368,13.896,259.052,13.896ZM296.188,41L303.668,41L303.668,26.656C303.668,20.056,299.884,16.184,294.20799999999997,16.184C290.908,16.184,288.26800000000003,17.636,286.772,19.704L286.772,16.448L279.248,16.448L279.248,41L286.772,41L286.772,27.668C286.772,24.324,288.62,22.476,291.48,22.476C294.34000000000003,22.476,296.188,24.324,296.188,27.668L296.188,41ZM357.26,31.584000000000003C357.26,33.784,355.808,34.928,353.3,34.928L347.756,34.928L347.756,28.107999999999997L353.212,28.107999999999997C355.72,28.107999999999997,357.26,29.384,357.26,31.584000000000003ZM356.512,19.396C356.512,21.508,355.148,22.608,352.684,22.608L347.756,22.608L347.756,16.14L352.684,16.14C355.148,16.14,356.512,17.284,356.512,19.396ZM364.872,32.596C364.872,29.076,362.54,25.908,358.932,25.159999999999997C361.924,24.28,364.168,21.86,364.168,18.12C364.168,13.236,360.428,10.111999999999998,354.136,10.111999999999998L340.232,10.111999999999998L340.232,41L354.62,41C361.132,41,364.872,37.7,364.872,32.596ZM387.752,29.604C387.752,25.380000000000003,389.82,24.148,393.384,24.148L395.452,24.148L395.452,16.184C392.152,16.184,389.468,17.944,387.752,20.54L387.752,16.448L380.228,16.448L380.228,41L387.752,41L387.752,29.604ZM410.06,41L417.584,41L417.584,16.448L410.06,16.448L410.06,41ZM413.844,13.896C416.484,13.896,418.288,12.091999999999999,418.288,9.847999999999999C418.288,7.5600000000000005,416.484,5.756,413.844,5.756C411.16,5.756,409.356,7.5600000000000005,409.356,9.847999999999999C409.356,12.091999999999999,411.16,13.896,413.844,13.896ZM432.544,28.68C432.544,36.424,437.34,41.352,443.368,41.352C446.976,41.352,449.572,39.724,450.936,37.48L450.936,41L458.46,41L458.46,8.44L450.936,8.44L450.936,19.836C449.44,17.592,446.624,16.096,443.368,16.096C437.34,16.096,432.544,20.936,432.544,28.68ZM450.936,28.723999999999997C450.936,32.64,448.428,34.796,445.568,34.796C442.752,34.796,440.2,32.596,440.2,28.68C440.2,24.764,442.752,22.652,445.568,22.652C448.428,22.652,450.936,24.808,450.936,28.723999999999997ZM473.42,28.68C473.42,36.424,478.216,41.352,484.244,41.352C487.852,41.352,490.448,39.636,491.812,37.48L491.812,40.956C491.812,45.092,489.568,46.588,486.708,46.588C484.112,46.588,482.264,45.4,481.78,43.552L474.344,43.552C475.004,49.404,479.756,53.1,487.06,53.1C495.552,53.1,499.336,47.512,499.336,40.956L499.336,16.448L491.812,16.448L491.812,19.924C490.492,17.724,487.852,16.096,484.244,16.096C478.216,16.096,473.42,20.936,473.42,28.68ZM491.812,28.723999999999997C491.812,32.64,489.304,34.796,486.444,34.796C483.628,34.796,481.076,32.596,481.076,28.68C481.076,24.764,483.628,22.652,486.444,22.652C489.304,22.652,491.812,24.808,491.812,28.723999999999997ZM526.616,22.124C529.124,22.124,531.236,23.664,531.236,26.348L521.8199999999999,26.348C522.26,23.62,524.152,22.124,526.616,22.124ZM538.364,32.86L530.356,32.86C529.74,34.18,528.552,35.236,526.44,35.236C524.02,35.236,522.04,33.74,521.7760000000001,30.528L538.804,30.528C538.892,29.78,538.9359999999999,29.031999999999996,538.9359999999999,28.328000000000003C538.9359999999999,20.848,533.876,16.096,526.704,16.096C519.4,16.096,514.296,20.936,514.296,28.723999999999997C514.296,36.512,519.488,41.352,526.704,41.352C532.8199999999999,41.352,537.1759999999999,37.656,538.364,32.86Z" fill="#006AFF" fill-opacity="1"/><path d="M255.268,18.2083L255.268,16.448L262.79200000000003,16.448L262.79200000000003,41L255.268,41L255.268,18.2083ZM267.79200000000003,13.342099999999999Q268.496,11.679200000000002,268.496,9.847999999999999Q268.496,7.971,267.769,6.2738Q267.04200000000003,4.5779,265.696,3.307499999999999Q262.99199999999996,0.7560000000000002,259.052,0.7560000000000002Q255.093,0.7560000000000002,252.383,3.2955000000000005Q251.026,4.566700000000001,250.294,6.2683Q249.564,7.9671,249.564,9.847999999999999Q249.564,11.679300000000001,250.268,13.340599999999998L250.268,46L267.79200000000003,46L267.79200000000003,13.342099999999999ZM263.164,11.448C263.38,10.957799999999999,263.496,10.417000000000002,263.496,9.847999999999999C263.496,7.5600000000000005,261.692,5.756,259.052,5.756C256.368,5.756,254.564,7.5600000000000005,254.564,9.847999999999999C254.564,10.417000000000002,254.68,10.957799999999999,254.897,11.448C255.536,12.890899999999998,257.049,13.896,259.052,13.896C261.023,13.896,262.527,12.890899999999998,263.164,11.448ZM410.06,18.2083L410.06,16.448L417.584,16.448L417.584,41L410.06,41L410.06,18.2083ZM422.584,13.342099999999999Q423.288,11.679200000000002,423.288,9.847999999999999Q423.288,7.971,422.561,6.2738Q421.834,4.5779,420.488,3.307499999999999Q417.784,0.7560000000000002,413.844,0.7560000000000002Q409.885,0.7560000000000002,407.175,3.2955000000000005Q405.818,4.566700000000001,405.086,6.2683Q404.356,7.9671,404.356,9.847999999999999Q404.356,11.679200000000002,405.06,13.340499999999999L405.06,46L422.584,46L422.584,13.342099999999999ZM417.956,11.448C418.172,10.957799999999999,418.288,10.417000000000002,418.288,9.847999999999999C418.288,7.5600000000000005,416.484,5.756,413.844,5.756C411.16,5.756,409.356,7.5600000000000005,409.356,9.847999999999999C409.356,10.417000000000002,409.472,10.957799999999999,409.689,11.448C410.328,12.890899999999998,411.841,13.896,413.844,13.896C415.815,13.896,417.319,12.890899999999998,417.956,11.448ZM83.156,3.4399999999999995L83.156,46L100.68,46L100.68,3.4399999999999995L83.156,3.4399999999999995ZM107.136,3.4399999999999995L107.136,46L124.66,46L124.66,3.4399999999999995L107.136,3.4399999999999995ZM168.736,3.4399999999999995L168.736,46L203.156,46L203.156,26.656Q203.156,19.8282,199.284,15.5777Q197.297,13.3966,194.54,12.266100000000002Q191.902,11.184000000000001,188.828,11.184000000000001Q187.507,11.184000000000001,186.26,11.3829L186.26,3.4399999999999995L168.736,3.4399999999999995ZM186.26,16.4828C185.13,16.7573,184.121,17.2105,183.258,17.7989C182.459,18.344,181.786,19.0052,181.26,19.748L181.26,8.44L173.736,8.44L173.736,41L181.26,41L181.26,27.668C181.26,24.6981,182.718,22.9082,185.047,22.5449C185.178,22.5245,185.311,22.5086,185.447,22.4973C185.617,22.4831,185.79,22.476,185.968,22.476C188.828,22.476,190.676,24.324,190.676,27.668L190.676,41L198.156,41L198.156,26.656C198.156,20.056,194.416,16.184,188.828,16.184C187.918,16.184,187.059,16.2887,186.26,16.4828ZM428.672,21.7845Q427.544,24.9844,427.544,28.68Q427.544,32.3722,428.669,35.5814Q429.802,38.8118,431.956,41.2389Q434.138,43.6977,437.084,45.0216Q440.045,46.352,443.368,46.352Q445.13,46.352,446.74,46L463.46,46L463.46,3.4399999999999995L445.936,3.4399999999999995L445.936,11.3061Q444.685,11.096,443.368,11.096Q440.056,11.096,437.108,12.401800000000001Q434.158,13.7091,431.973,16.1465Q429.808,18.5605,428.672,21.7845ZM450.936,13.137799999999999L450.936,19.836C450.638,19.389,450.288,18.9717,449.892,18.5899C448.847,17.5823,447.486,16.8227,445.936,16.4198C445.125,16.2091,444.263,16.096,443.368,16.096C437.34,16.096,432.544,20.936,432.544,28.68C432.544,36.424,437.34,41.352,443.368,41.352C444.292,41.352,445.149,41.2453,445.936,41.049C447.536,40.6499,448.847,39.8804,449.837,38.8829C450.264,38.4537,450.631,37.9823,450.936,37.48L450.936,41L458.46,41L458.46,8.44L450.936,8.44L450.936,13.137799999999999ZM60.3705,40.544L62.2185,46L80.8943,46L66.1001,5.112L50.37189,5.112L35.57766,46L54.1655,46L56.0135,40.544L60.3705,40.544ZM63.956,35.544L65.804,41L73.768,41L71.9589,36L62.592,10.111999999999998L53.88,10.111999999999998L44.51312,36L42.704,41L50.58,41L52.428,35.544L63.956,35.544ZM62.019999999999996,29.735999999999997L60.8435,26.260599999999997L60.3274,24.736L58.192,18.428L56.0812,24.736L55.5679,26.269799999999996L54.408,29.735999999999997L62.019999999999996,29.735999999999997ZM368.762,38.0777Q369.872,35.5568,369.872,32.596Q369.872,28.255899999999997,367.275,24.8631Q369.168,21.9267,369.168,18.12Q369.168,15.207,368.031,12.7254Q366.866,10.183399999999999,364.655,8.396Q360.592,5.112,354.136,5.112L335.232,5.112L335.232,46L354.62,46Q361.268,46,365.396,42.5472Q367.608,40.6967,368.762,38.0777ZM363.423,21.521C363.899,20.5516,364.168,19.4149,364.168,18.12C364.168,13.236,360.428,10.111999999999998,354.136,10.111999999999998L340.232,10.111999999999998L340.232,41L354.62,41C361.132,41,364.872,37.7,364.872,32.596C364.872,31.098300000000002,364.45,29.664299999999997,363.687,28.453400000000002C362.757,26.977899999999998,361.321,25.8335,359.527,25.308300000000003C359.415,25.2755,359.301,25.2451,359.186,25.2172C359.102,25.196800000000003,359.017,25.1777,358.932,25.159999999999997C359.035,25.129800000000003,359.136,25.097900000000003,359.237,25.064100000000003C359.288,25.0471,359.338,25.029600000000002,359.389,25.0116C361.142,24.3864,362.595,23.2068,363.423,21.521ZM95.68,36L95.68,41L88.156,41L88.156,8.44L95.68,8.44L95.68,36ZM119.66,36L119.66,41L112.136,41L112.136,8.44L119.66,8.44L119.66,36ZM130.8598,21.6987Q129.62,24.9423,129.62,28.723999999999997Q129.62,32.5199,130.85899999999998,35.7658Q132.12009999999998,39.0696,134.534,41.4896Q136.9274,43.889,140.1728,45.1396Q143.31900000000002,46.352,146.94,46.352Q153.267,46.352,157.774,42.7783Q162.25799999999998,39.2227,163.61,33.2087L164.256,30.336L164.94,30.336L164.603,28.7922L164.981,27.112000000000002L164.237,27.112000000000002L163.61700000000002,24.2708Q162.277,18.125,157.748,14.582799999999999Q153.289,11.096,146.94,11.096Q143.316,11.096,140.1635,12.318200000000001Q136.9222,13.5747,134.52960000000002,15.979399999999998Q132.1203,18.4008,130.8598,21.6987ZM209.024,21.7845Q207.896,24.9844,207.896,28.68Q207.896,32.3701,209.02,35.5795Q210.15,38.8069,212.298,41.2337Q214.474,43.6923,217.409,45.018Q220.364,46.352,223.676,46.352Q225.437,46.352,227.05,46L243.812,46L243.812,11.448L227.095,11.448Q225.482,11.096,223.72,11.096Q220.408,11.096,217.46,12.401800000000001Q214.509,13.7092,212.324,16.1465Q210.16,18.5605,209.024,21.7845ZM234.973,16.448L231.288,16.448L231.288,19.924C230.998,19.4507,230.647,19.0007,230.236,18.5866C229.251,17.5922,227.924,16.8048,226.288,16.3984C225.502,16.2032,224.645,16.096,223.72,16.096C217.692,16.096,212.896,20.936,212.896,28.68C212.896,36.424,217.692,41.352,223.676,41.352C224.618,41.352,225.49,41.2408,226.288,41.0387C227.895,40.632,229.205,39.8574,230.194,38.8809C230.618,38.4615,230.984,38.0048,231.288,37.524L231.288,41L238.812,41L238.812,16.448L234.973,16.448ZM469.548,21.7845Q468.42,24.9845,468.42,28.68Q468.42,32.3722,469.545,35.5814Q470.1,37.1629,470.899,38.552L468.748,38.552L469.376,44.1124Q469.734,47.2933,471.216,49.9487Q472.708,52.6231,475.19,54.5048Q479.932,58.099999999999994,487.06,58.099999999999994Q491.121,58.099999999999994,494.435,56.7598Q497.758,55.4163,500.088,52.843Q502.262,50.4427,503.35,47.2167Q504.336,44.2922,504.336,40.956L504.336,11.448L487.626,11.448Q486.01,11.096,484.244,11.096Q480.932,11.096,477.984,12.401800000000001Q475.033,13.7092,472.848,16.1465Q470.684,18.5604,469.548,21.7845ZM495.503,16.448L491.812,16.448L491.812,19.924C491.529,19.4519,491.185,19.0061,490.783,18.5971C489.792,17.5867,488.451,16.8008,486.812,16.3967C486.023,16.2021,485.165,16.096,484.244,16.096C478.216,16.096,473.42,20.936,473.42,28.68C473.42,32.94,474.871,36.3479,477.181,38.552C479.069,40.3546,481.532,41.352,484.244,41.352C484.978,41.352,485.671,41.2809,486.319,41.1495C486.486,41.1157,486.65,41.0779,486.812,41.0362C488.376,40.6319,489.664,39.8681,490.647,38.9126C491.102,38.4706,491.491,37.9875,491.812,37.48L491.812,40.956C491.812,42.7241,491.402,44.0098,490.709,44.9023C489.781,46.0977,488.345,46.588,486.708,46.588C486.013,46.588,485.372,46.5029,484.797,46.3429C483.221,45.905,482.134,44.9055,481.78,43.552L474.344,43.552C474.56,45.4677,475.215,47.1524,476.254,48.552C478.389,51.4278,482.147,53.1,487.06,53.1C495.552,53.1,499.336,47.512,499.336,40.956L499.336,16.448L495.503,16.448ZM538.681,25.528C537.571,19.6823,532.935,16.096,526.704,16.096C519.4,16.096,514.296,20.936,514.296,28.723999999999997C514.296,36.512,519.488,41.352,526.704,41.352C530.409,41.352,533.4680000000001,39.9956,535.568,37.86C536.2570000000001,37.1597,536.8430000000001,36.3756,537.3140000000001,35.528C537.778,34.6937,538.1320000000001,33.7979,538.364,32.86L530.356,32.86C529.74,34.18,528.552,35.236,526.44,35.236C524.236,35.236,522.3969999999999,33.9954,521.887,31.348C521.837,31.088299999999997,521.8,30.814999999999998,521.7760000000001,30.528L538.804,30.528C538.892,29.78,538.9359999999999,29.031999999999996,538.9359999999999,28.328000000000003C538.9359999999999,28.1708,538.934,28.0148,538.929,27.86C538.914,27.321599999999997,538.8720000000001,26.798099999999998,538.804,26.290100000000002C538.77,26.031999999999996,538.729,25.777900000000002,538.681,25.528ZM543.931,27.86Q543.857,24.4199,542.6890000000001,21.4378Q541.424,18.2078,539.0129999999999,15.8398Q536.631,13.500399999999999,533.414,12.2803Q530.2909999999999,11.096,526.704,11.096Q523.058,11.096,519.899,12.3034Q516.634,13.551100000000002,514.23,15.9495Q511.804,18.3695,510.538,21.6786Q509.296,24.9242,509.296,28.723999999999997Q509.296,32.5292,510.557,35.7874Q511.835,39.0885,514.2719999999999,41.5073Q516.679,43.8963,519.932,45.1429Q523.087,46.352,526.704,46.352Q532.852,46.352,537.4100000000001,42.8834Q541.255,39.9577,542.7850000000001,35.528L543.25,35.528L543.608,32.4834L544.754,27.86L543.931,27.86ZM526.236,26.348L521.8199999999999,26.348C521.866,26.060899999999997,521.929,25.7875,522.006,25.528C522.665,23.3217,524.4110000000001,22.124,526.616,22.124C528.856,22.124,530.781,23.3527,531.1659999999999,25.528C531.212,25.787999999999997,531.236,26.061500000000002,531.236,26.348L526.236,26.348ZM291.188,46L274.248,46L274.248,11.448L291.30899999999997,11.448Q292.712,11.184000000000001,294.20799999999997,11.184000000000001Q297.302,11.184000000000001,299.955,12.256599999999999Q302.734,13.380199999999999,304.74,15.5531Q308.668,19.8073,308.668,26.656L308.668,46L291.188,46ZM291.772,16.4648C292.534,16.2825,293.348,16.184,294.20799999999997,16.184C299.884,16.184,303.668,20.056,303.668,26.656L303.668,41L296.188,41L296.188,27.668C296.188,24.324,294.34000000000003,22.476,291.48,22.476C291.291,22.476,291.10699999999997,22.4841,290.927,22.5001C290.799,22.5115,290.673,22.5269,290.55,22.5463C288.226,22.9128,286.772,24.7019,286.772,27.668L286.772,41L279.248,41L279.248,16.448L286.772,16.448L286.772,19.704C287.28999999999996,18.9883,287.94399999999996,18.3464,288.716,17.8129C289.59299999999996,17.2065,290.622,16.7401,291.772,16.4648ZM392.752,46L392.752,29.604Q392.752,29.360799999999998,392.763,29.169199999999996Q393.032,29.148000000000003,393.384,29.148000000000003L400.452,29.148000000000003L400.452,11.184000000000001L395.452,11.184000000000001Q394.048,11.184000000000001,392.72,11.448L375.228,11.448L375.228,46L392.752,46ZM390.452,17.7439C389.502,18.4008,388.672,19.2385,387.982,20.2049C387.904,20.315,387.827,20.4267,387.752,20.54L387.752,16.448L380.228,16.448L380.228,41L387.752,41L387.752,29.604C387.752,25.380000000000003,389.82,24.148,393.384,24.148L395.452,24.148L395.452,16.184C394.498,16.184,393.595,16.3312,392.752,16.6032C391.925,16.8703,391.155,17.2575,390.452,17.7439ZM146.94,41.352C139.724,41.352,134.62,36.512,134.62,28.723999999999997C134.62,20.98,139.724,16.096,146.94,16.096C151.04500000000002,16.096,154.349,17.6005,156.474,20.336C157.538,21.7055,158.30599999999998,23.3836,158.732,25.336L150.724,25.336C150.108,23.62,148.876,22.52,146.808,22.52C144.124,22.52,142.276,24.632,142.276,28.723999999999997C142.276,32.816,144.124,34.928,146.808,34.928C148.876,34.928,150.064,33.916,150.724,32.112L158.732,32.112C158.298,34.0418,157.50799999999998,35.7275,156.412,37.112C154.285,39.7995,151.006,41.352,146.94,41.352ZM347.756,21.14L347.756,16.14L352.756,16.14C355.175,16.1625,356.512,17.3047,356.512,19.396C356.512,21.4873,355.175,22.5864,352.756,22.6077L352.684,22.608L347.756,22.608L347.756,21.14ZM225.92,34.796C228.78,34.796,231.288,32.64,231.288,28.723999999999997C231.288,24.808,228.78,22.652,225.92,22.652C223.104,22.652,220.552,24.764,220.552,28.68C220.552,32.596,223.104,34.796,225.92,34.796ZM445.568,34.796C448.428,34.796,450.936,32.64,450.936,28.723999999999997C450.936,24.808,448.428,22.652,445.568,22.652C442.752,22.652,440.2,24.764,440.2,28.68C440.2,32.596,442.752,34.796,445.568,34.796ZM486.444,34.796C489.304,34.796,491.812,32.64,491.812,28.723999999999997C491.812,24.808,489.304,22.652,486.444,22.652C483.628,22.652,481.076,24.764,481.076,28.68C481.076,32.596,483.628,34.796,486.444,34.796ZM226.065,27.676900000000003Q226.288,27.910400000000003,226.288,28.723999999999997Q226.288,29.537599999999998,226.065,29.771099999999997Q226.041,29.796,225.92,29.796Q225.552,29.796,225.552,28.68Q225.552,27.9018,225.764,27.6843Q225.795,27.652,225.92,27.652Q226.041,27.652,226.065,27.676900000000003ZM445.713,27.676900000000003Q445.936,27.910400000000003,445.936,28.723999999999997Q445.936,29.537599999999998,445.713,29.771099999999997Q445.689,29.796,445.568,29.796Q445.485,29.796,445.449,29.758200000000002Q445.2,29.497100000000003,445.2,28.68Q445.2,27.9018,445.412,27.6843Q445.443,27.652,445.568,27.652Q445.689,27.652,445.713,27.676900000000003ZM486.589,27.676900000000003Q486.812,27.910400000000003,486.812,28.723999999999997Q486.812,29.537599999999998,486.589,29.771099999999997Q486.565,29.796,486.444,29.796Q486.076,29.796,486.076,28.68Q486.076,27.9018,486.288,27.6843Q486.319,27.652,486.444,27.652Q486.565,27.652,486.589,27.676900000000003ZM352.756,34.928L347.756,34.928L347.756,28.107999999999997L353.212,28.107999999999997C355.72,28.107999999999997,357.26,29.384,357.26,31.584000000000003C357.26,33.784,355.808,34.928,353.3,34.928L352.756,34.928Z" fill-rule="evenodd" fill="#FFFFFF" fill-opacity="1"/></g></g></svg>